<svg id="Layer_1" data-name="Layer 1" xmlns="http://www.w3.org/2000/svg" viewBox="0 0 100 94"><polygon points="80.32 13.16 75.37 36.95 70.62 55.19 60.51 64.86 63.09 45.63 67.47 13.16 80.32 13.16"/><polygon points="53.91 13.16 51.7 53.79 50.35 74.57 39.6 84.84 39.51 60.78 39.07 13.16 53.91 13.16"/><path d="M50.35,74.57,39.6,84.84A105.89,105.89,0,0,1,10.14,13.16H25A90.91,90.91,0,0,0,39.51,60.78,90.3,90.3,0,0,0,50.35,74.57Z"/><path d="M70.62,55.19,60.51,64.86A77.28,77.28,0,0,1,51.7,53.79,76.9,76.9,0,0,1,39.33,17.85c-.14-1.56-.21-3.12-.26-4.69H53.91C54.24,25.1,57,36.21,63.09,45.63A64.81,64.81,0,0,0,70.62,55.19Z"/><path d="M89.86,36.2l-9,8.61A47.57,47.57,0,0,1,74.74,37a47.93,47.93,0,0,1-7.27-23.79H80.32C80.75,21.51,84.43,30.53,89.86,36.2Z"/></svg>