<?xml version="1.0" encoding="UTF-8"?><svg id="a" xmlns="http://www.w3.org/2000/svg" viewBox="0 0 141 22.3"><path id="b" d="M.6,10.5c.5-2.6,2.8-4.4,6-4.4,3.7,0,6.6,1.6,6.6,6.6v9.3h-3.2l-.4-2c-1.1,1.4-2.6,2.3-4.8,2.3-2.7,0-4.8-1.7-4.8-4.8s2.8-5.1,6.7-5.1h2.6v-.7c0-1.8-1.3-2.3-2.8-2.3-1.1,0-2.2,.4-2.7,1.8l-3.2-.7Zm5.1,8.5c1.8,0,3.6-1.2,3.6-3.2v-.3h-2.5c-1.7-.1-2.7,.6-2.7,2,0,.7,.6,1.5,1.6,1.5Z"/><path id="c" d="M76,10.5c.5-2.6,2.8-4.4,6-4.4,3.7,0,6.6,1.6,6.6,6.6v9.3h-3.2l-.4-2c-1.1,1.4-2.6,2.3-4.8,2.3-2.7,0-4.8-1.7-4.8-4.8s2.8-5.1,6.7-5.1h2.6v-.7c0-1.8-1.3-2.3-2.8-2.3-1.1,0-2.2,.4-2.7,1.8l-3.2-.7Zm5.1,8.5c1.8,0,3.6-1.2,3.6-3.2v-.3h-2.6c-1.7,0-2.7,.6-2.7,2,.1,.7,.7,1.5,1.7,1.5Z"/><path id="d" d="M92.1,22.1V6.3h3.9v2.6c1.1-1.9,2.9-2.8,4.6-2.8,.7,0,1.3,.1,1.9,.3l-.7,3.6c-.5-.3-1-.5-1.6-.5-2.3,0-4.2,1.9-4.2,6.9v5.6l-3.9,.1h0Z"/><path id="e" d="M110.8,6.1c1.6,0,3.1,.8,3.8,1.7V0h3.9V22.1h-3.9v-1.6c-.5,.8-1.9,1.9-3.8,1.9-4.7,0-7.1-3.3-7.1-8.1s2.4-8.2,7.1-8.2Zm.6,12.9c2,0,3.6-1.7,3.6-4.8s-1.6-4.8-3.6-4.8-3.6,1.7-3.6,4.8,1.6,4.8,3.6,4.8Z"/><path id="f" d="M132.5,8.6l-2.3,2.1c-.7-1-1.8-1.4-2.6-1.4s-1.5,.5-1.5,1.3c0,.7,.6,1.2,1.5,1.5,2.2,.8,5.7,1.5,5.7,4.8,0,2.9-2.2,5.2-5.6,5.2s-5.5-2.3-6.2-4.2l3.1-1.7c.6,1.5,1.6,2.6,3.2,2.6,1.2,0,2-.6,2-1.7,0-1.3-2-1.6-3.9-2.4-1.7-.7-3.2-1.8-3.2-4.2s2-4.6,5-4.6c2,.1,3.9,1.2,4.8,2.7Z"/><polygon id="g" points="51.9 6.3 49.1 17.2 46.4 6.3 42.8 6.3 40.2 17.2 38 10.9 37.7 11.6 36.5 15.7 38.5 22.1 41.9 22.1 44.6 11.9 47.3 22.1 50.8 22.1 55.8 6.3 51.9 6.3"/><polygon id="h" points="70.6 6.3 67.8 17.2 65.1 6.3 61.5 6.3 58.9 17.2 56.7 10.9 56.4 11.6 55.1 15.7 57.2 22.1 60.6 22.1 63.3 11.9 66 22.1 69.4 22.1 74.5 6.3 70.6 6.3"/><path id="i" d="M37.1,6.3l-5,15.7h-3.4l-2.7-10.1-2.7,10.2h-3.4L14.9,6.4h3.9l2.8,10.8,2.7-10.8h3.6l2.7,10.8,2.8-10.8,3.7-.1h0Z"/><path id="j" d="M138.4,17c1.5,0,2.6,1.1,2.6,2.6s-1.1,2.6-2.6,2.6-2.6-1.1-2.6-2.6,1.1-2.6,2.6-2.6Z"/></svg>