<svg id="a" xmlns="http://www.w3.org/2000/svg" viewBox="0 0 141 22.3"><defs><style>.cls-1{fill:#fff;}</style></defs><path id="b" class="cls-1" d="M.6,10.5c.5-2.6,2.8-4.4,6-4.4,3.7,0,6.6,1.6,6.6,6.6V22H10l-.4-2a5.75,5.75,0,0,1-4.8,2.3A4.51,4.51,0,0,1,0,17.5c0-3.1,2.8-5.1,6.7-5.1H9.3v-.7C9.3,9.9,8,9.4,6.5,9.4a2.62,2.62,0,0,0-2.7,1.8ZM5.7,19a3.38,3.38,0,0,0,3.6-3.2v-.3H6.8c-1.7-.1-2.7.6-2.7,2A1.56,1.56,0,0,0,5.7,19Z"/><path id="c" class="cls-1" d="M76,10.5c.5-2.6,2.8-4.4,6-4.4,3.7,0,6.6,1.6,6.6,6.6V22H85.4L85,20a5.75,5.75,0,0,1-4.8,2.3,4.51,4.51,0,0,1-4.8-4.8c0-3.1,2.8-5.1,6.7-5.1h2.6v-.7c0-1.8-1.3-2.3-2.8-2.3a2.62,2.62,0,0,0-2.7,1.8ZM81.1,19a3.38,3.38,0,0,0,3.6-3.2v-.3H82.1c-1.7,0-2.7.6-2.7,2A1.73,1.73,0,0,0,81.1,19Z"/><path id="d" class="cls-1" d="M92.1,22.1V6.3H96V8.9a5.34,5.34,0,0,1,4.6-2.8,5.82,5.82,0,0,1,1.9.3l-.7,3.6a3,3,0,0,0-1.6-.5c-2.3,0-4.2,1.9-4.2,6.9V22l-3.9.1Z"/><path id="e" class="cls-1" d="M110.8,6.1a5.05,5.05,0,0,1,3.8,1.7V0h3.9V22.1h-3.9V20.5a4.64,4.64,0,0,1-3.8,1.9c-4.7,0-7.1-3.3-7.1-8.1S106.1,6.1,110.8,6.1Zm.6,12.9c2,0,3.6-1.7,3.6-4.8s-1.6-4.8-3.6-4.8-3.6,1.7-3.6,4.8S109.4,19,111.4,19Z"/><path id="f" class="cls-1" d="M132.5,8.6l-2.3,2.1a3.28,3.28,0,0,0-2.6-1.4,1.37,1.37,0,0,0-1.5,1.3c0,.7.6,1.2,1.5,1.5,2.2.8,5.7,1.5,5.7,4.8,0,2.9-2.2,5.2-5.6,5.2a6.57,6.57,0,0,1-6.2-4.2l3.1-1.7c.6,1.5,1.6,2.6,3.2,2.6,1.2,0,2-.6,2-1.7,0-1.3-2-1.6-3.9-2.4-1.7-.7-3.2-1.8-3.2-4.2a4.75,4.75,0,0,1,5-4.6A6.07,6.07,0,0,1,132.5,8.6Z"/><polygon id="g" class="cls-1" points="51.9 6.3 49.1 17.2 46.4 6.3 42.8 6.3 40.2 17.2 38 10.9 37.7 11.6 36.5 15.7 38.5 22.1 41.9 22.1 44.6 11.9 47.3 22.1 50.8 22.1 55.8 6.3 51.9 6.3"/><polygon id="h" class="cls-1" points="70.6 6.3 67.8 17.2 65.1 6.3 61.5 6.3 58.9 17.2 56.7 10.9 56.4 11.6 55.1 15.7 57.2 22.1 60.6 22.1 63.3 11.9 66 22.1 69.4 22.1 74.5 6.3 70.6 6.3"/><path id="i" class="cls-1" d="M37.1,6.3,32.1,22H28.7L26,11.9,23.3,22.1H19.9l-5-15.7h3.9l2.8,10.8L24.3,6.4h3.6l2.7,10.8L33.4,6.4l3.7-.1Z"/><path id="j" class="cls-1" d="M138.4,17a2.6,2.6,0,1,1-2.6,2.6A2.52,2.52,0,0,1,138.4,17Z"/></svg>